<svg width="43" height="45" viewBox="0 0 43 45" fill="none" xmlns="http://www.w3.org/2000/svg">
<rect x="2" y="2.5" width="39" height="40" stroke="black" stroke-width="4"/>
<mask id="path-2-outside-1_95_4310" maskUnits="userSpaceOnUse" x="15" y="15.5" width="13" height="14" fill="black">
<rect fill="white" x="15" y="15.5" width="13" height="14"/>
<path d="M16.3098 18.7281V16.6625H26.0341V18.7281H22.4113V28.5H19.9405V18.7281H16.3098Z"/>
</mask>
<path d="M16.3098 18.7281V16.6625H26.0341V18.7281H22.4113V28.5H19.9405V18.7281H16.3098Z" fill="black"/>
<path d="M16.3098 18.7281H15.3098V19.7281H16.3098V18.7281ZM16.3098 16.6625V15.6625H15.3098V16.6625H16.3098ZM26.0341 16.6625H27.0341V15.6625H26.0341V16.6625ZM26.0341 18.7281V19.7281H27.0341V18.7281H26.0341ZM22.4113 18.7281V17.7281H21.4113V18.7281H22.4113ZM22.4113 28.5V29.5H23.4113V28.5H22.4113ZM19.9405 28.5H18.9405V29.5H19.9405V28.5ZM19.9405 18.7281H20.9405V17.7281H19.9405V18.7281ZM17.3098 18.7281V16.6625H15.3098V18.7281H17.3098ZM16.3098 17.6625H26.0341V15.6625H16.3098V17.6625ZM25.0341 16.6625V18.7281H27.0341V16.6625H25.0341ZM26.0341 17.7281H22.4113V19.7281H26.0341V17.7281ZM21.4113 18.7281V28.5H23.4113V18.7281H21.4113ZM22.4113 27.5H19.9405V29.5H22.4113V27.5ZM20.9405 28.5V18.7281H18.9405V28.5H20.9405ZM19.9405 17.7281H16.3098V19.7281H19.9405V17.7281Z" fill="black" mask="url(#path-2-outside-1_95_4310)"/>
</svg>
