<svg width="24" height="24" viewBox="0 0 24 24" fill="none" xmlns="http://www.w3.org/2000/svg">
<g id="ph:file-bold">
<path id="Vector" opacity="0.8" d="M16.0135 11.1678L12.0922 7.24648C12.0141 7.16835 11.9215 7.10636 11.8195 7.06407C11.7175 7.02178 11.6081 7.00001 11.4977 7H4.77546C4.40404 7 4.04782 7.14755 3.78519 7.41019C3.52255 7.67282 3.375 8.02904 3.375 8.40046V20.7245C3.375 21.096 3.52255 21.4522 3.78519 21.7148C4.04782 21.9775 4.40404 22.125 4.77546 22.125H14.8588C15.2302 22.125 15.5864 21.9775 15.8491 21.7148C16.1117 21.4522 16.2593 21.096 16.2593 20.7245V11.7616C16.2592 11.5389 16.1708 11.3253 16.0135 11.1678ZM12.0579 9.59086L13.6684 11.2014H12.0579V9.59086ZM5.05556 20.4444V8.68056H10.3773V12.0417C10.3773 12.2645 10.4658 12.4783 10.6234 12.6358C10.781 12.7934 10.9947 12.8819 11.2176 12.8819H14.5787V20.4444H5.05556Z" fill="black"/>
</g>
</svg>
