<svg width="14" height="14" viewBox="0 0 14 14" fill="none" xmlns="http://www.w3.org/2000/svg">
<g id="ph:magnifying-glass-bold">
<path id="Vector" d="M12.7143 11.7857L10.1172 9.18755C10.8959 8.1728 11.2594 6.89985 11.1341 5.62692C11.0087 4.35399 10.4039 3.17639 9.44225 2.33301C8.48059 1.48963 7.23414 1.04362 5.95573 1.08546C4.67733 1.1273 3.4627 1.65385 2.55825 2.55831C1.65379 3.46276 1.12724 4.67739 1.0854 5.95579C1.04356 7.2342 1.48957 8.48065 2.33295 9.44231C3.17633 10.404 4.35393 11.0088 5.62686 11.1341C6.89979 11.2595 8.17274 10.8959 9.18749 10.1172L11.7868 12.7171C11.8478 12.7781 11.9203 12.8265 12.0001 12.8596C12.0798 12.8926 12.1653 12.9096 12.2516 12.9096C12.338 12.9096 12.4234 12.8926 12.5032 12.8596C12.583 12.8265 12.6554 12.7781 12.7165 12.7171C12.7775 12.656 12.8259 12.5836 12.859 12.5038C12.892 12.424 12.909 12.3386 12.909 12.2522C12.909 12.1659 12.892 12.0804 12.859 12.0007C12.8259 11.9209 12.7775 11.8484 12.7165 11.7874L12.7143 11.7857ZM2.40624 6.12505C2.40624 5.38955 2.62434 4.67057 3.03296 4.05902C3.44158 3.44747 4.02237 2.97083 4.70188 2.68937C5.38139 2.40791 6.12911 2.33426 6.85048 2.47775C7.57185 2.62124 8.23446 2.97542 8.75454 3.49549C9.27462 4.01557 9.62879 4.67819 9.77228 5.39956C9.91577 6.12092 9.84213 6.86864 9.56066 7.54815C9.2792 8.22766 8.80256 8.80845 8.19101 9.21707C7.57947 9.6257 6.86049 9.8438 6.12499 9.8438C5.13902 9.84278 4.19373 9.45066 3.49655 8.75348C2.79937 8.0563 2.40725 7.11101 2.40624 6.12505Z" fill="#4D4D4D"/>
</g>
</svg>
