<svg width="33" height="34" viewBox="0 0 33 34" fill="none" xmlns="http://www.w3.org/2000/svg">
<g id="ion:attach">
<path id="Vector" d="M13.9271 12.875V22.1466C13.9378 22.8246 14.2146 23.4712 14.6979 23.9468C15.1811 24.4225 15.832 24.6891 16.51 24.6891C17.1881 24.6891 17.839 24.4225 18.3222 23.9468C18.8054 23.4712 19.0823 22.8246 19.093 22.1466L19.1014 9.99396C19.1084 9.41448 19.0003 8.83937 18.7834 8.30197C18.5665 7.76456 18.2451 7.27555 17.8379 6.86329C17.4306 6.45103 16.9455 6.12371 16.4108 5.90032C15.876 5.67692 15.3023 5.56189 14.7227 5.56189C14.1432 5.56189 13.5695 5.67692 13.0347 5.90032C12.5 6.12371 12.0149 6.45103 11.6076 6.86329C11.2003 7.27555 10.8789 7.76456 10.662 8.30197C10.4452 8.83937 10.3371 9.41448 10.3441 9.99396V22.2285C10.3323 23.0443 10.4828 23.8543 10.7868 24.6114C11.0909 25.3686 11.5424 26.0577 12.1151 26.6388C12.6879 27.2199 13.3704 27.6813 14.1231 27.9963C14.8757 28.3113 15.6835 28.4734 16.4994 28.4734C17.3153 28.4734 18.1231 28.3113 18.8757 27.9963C19.6284 27.6813 20.3109 27.2199 20.8837 26.6388C21.4564 26.0577 21.9079 25.3686 22.212 24.6114C22.516 23.8543 22.6665 23.0443 22.6547 22.2285V10.7958" stroke="black" stroke-width="2.0625" stroke-miterlimit="10" stroke-linecap="round"/>
</g>
</svg>
