<svg width="25" height="25" viewBox="0 0 25 25" fill="none" xmlns="http://www.w3.org/2000/svg">
<g id="tabler:edit">
<g id="Group">
<path id="Vector" d="M7.29169 7.29163H6.25002C5.69749 7.29163 5.16758 7.51112 4.77688 7.90182C4.38618 8.29252 4.16669 8.82243 4.16669 9.37496V18.75C4.16669 19.3025 4.38618 19.8324 4.77688 20.2231C5.16758 20.6138 5.69749 20.8333 6.25002 20.8333H15.625C16.1776 20.8333 16.7075 20.6138 17.0982 20.2231C17.4889 19.8324 17.7084 19.3025 17.7084 18.75V17.7083" stroke="black" stroke-width="2.5" stroke-linecap="round" stroke-linejoin="round"/>
<path id="Vector_2" d="M16.6667 5.20832L19.7917 8.33332M21.2344 6.85936C21.6446 6.44911 21.8751 5.89268 21.8751 5.31249C21.8751 4.7323 21.6446 4.17587 21.2344 3.76561C20.8241 3.35536 20.2677 3.12488 19.6875 3.12488C19.1073 3.12488 18.5509 3.35536 18.1406 3.76561L9.375 12.5V15.625H12.5L21.2344 6.85936Z" stroke="black" stroke-width="2.5" stroke-linecap="round" stroke-linejoin="round"/>
</g>
</g>
</svg>
