<svg width="21" height="21" viewBox="0 0 21 21" fill="none" xmlns="http://www.w3.org/2000/svg">
<g opacity="0.3">
<path d="M8.75 12.25L18.375 2.625M8.75 12.25L11.8125 18.375C11.8509 18.4588 11.9125 18.5298 11.9901 18.5795C12.0676 18.6293 12.1578 18.6558 12.25 18.6558C12.3422 18.6558 12.4324 18.6293 12.5099 18.5795C12.5875 18.5298 12.6491 18.4588 12.6875 18.375L18.375 2.625M8.75 12.25L2.625 9.1875C2.54123 9.14911 2.47024 9.08747 2.42047 9.00992C2.3707 8.93236 2.34424 8.84215 2.34424 8.75C2.34424 8.65785 2.3707 8.56763 2.42047 8.49008C2.47024 8.41252 2.54123 8.35089 2.625 8.3125L18.375 2.625" stroke="black" stroke-width="1.5" stroke-linecap="round" stroke-linejoin="round"/>
</g>
</svg>
