<svg width="22" height="22" viewBox="0 0 22 22" fill="none" xmlns="http://www.w3.org/2000/svg">
<g id="tabler:send">
<path id="Vector" d="M9.70996 12.73L19.335 3.10498M9.70996 12.73L12.7725 18.855C12.8109 18.9388 12.8725 19.0097 12.95 19.0595C13.0276 19.1093 13.1178 19.1357 13.21 19.1357C13.3021 19.1357 13.3923 19.1093 13.4699 19.0595C13.5474 19.0097 13.6091 18.9388 13.6475 18.855L19.335 3.10498M9.70996 12.73L3.58496 9.66748C3.50119 9.62909 3.4302 9.56745 3.38043 9.4899C3.33066 9.41235 3.3042 9.32213 3.3042 9.22998C3.3042 9.13783 3.33066 9.04762 3.38043 8.97006C3.4302 8.89251 3.50119 8.83087 3.58496 8.79248L19.335 3.10498" stroke="black" stroke-width="1.5" stroke-linecap="round" stroke-linejoin="round"/>
</g>
</svg>
